<?xml version="1.0" encoding="utf-8"?>
<svg id="master-artboard" viewBox="0 0 50 50" xmlns="http://www.w3.org/2000/svg" width="50px" height="50px" version="1.1" style="shape-rendering:geometricPrecision; text-rendering:geometricPrecision; image-rendering:optimizeQuality; fill-rule:evenodd; clip-rule:evenodd"><rect id="ee-background" x="0" y="0" width="50" height="50" style="fill: white; fill-opacity: 0; pointer-events: none;"/><g transform="matrix(0.598964273929596, 0, 0, 0.598964273929596, -365.1672058105469, -103.86039236015766)"><g id="Layer_2_2_" transform="matrix(1, 0, 0, 1, 0, 0)">
	<g id="Layer_1-2_2_">
		<path class="st0" d="M699.8,231c-5.8,14.1-47.1,44.5-47.8,45l0,0c-0.7-0.5-42-30.9-47.8-45s0.5-30.7,14.2-36.7&#10;&#9;&#9;&#9;c12.4-5.4,27-0.6,33.6,11.2c6.7-11.8,21.2-16.6,33.6-11.2C699.3,200.3,705.7,216.8,699.8,231z" style="fill: rgb(69, 255, 224);"/>
	</g>
</g></g><path d="M 15.00895881652832 24 L 13.01895809173584 24 L 13.01895809173584 6.870000839233398 L 22.568958282470703 6.870000839233398 L 22.568958282470703 8.640000343322754 L 15.00895881652832 8.640000343322754 L 15.00895881652832 14.90999984741211 L 22.108959197998047 14.90999984741211 L 22.108959197998047 16.68000030517578 L 15.00895881652832 16.68000030517578 L 15.00895881652832 24 ZM 38.393959045410156 24 L 36.40395736694336 24 L 36.40395736694336 15.9399995803833 L 27.38395881652832 15.9399995803833 L 27.38395881652832 24 L 25.393959045410156 24 L 25.393959045410156 6.870000839233398 L 27.38395881652832 6.870000839233398 L 27.38395881652832 14.15999984741211 L 36.40395736694336 14.15999984741211 L 36.40395736694336 6.870000839233398 L 38.393959045410156 6.870000839233398 L 38.393959045410156 24 Z" transform="matrix(0.9189368486404419, 0, 0, 0.9189368486404419, -4.658001899719238, -5.145402431488037)" style="fill: rgb(51, 9, 14); white-space: pre; color: rgb(51, 9, 14);"/></svg>