<?xml version="1.0" standalone="no"?>
<!DOCTYPE svg PUBLIC "-//W3C//DTD SVG 20010904//EN"
 "http://www.w3.org/TR/2001/REC-SVG-20010904/DTD/svg10.dtd">
<svg version="1.0" xmlns="http://www.w3.org/2000/svg"
 width="1536.000000pt" height="1536.000000pt" viewBox="0 0 1536.000000 1536.000000"
 preserveAspectRatio="xMidYMid meet">

<g transform="translate(0.000000,1536.000000) scale(0.100000,-0.100000)"
fill="#000000" stroke="none">
<path d="M6505 12200 c-3 -6 1 -7 9 -4 18 7 21 14 7 14 -6 0 -13 -4 -16 -10z"/>
<path d="M5023 11843 c9 -2 23 -2 30 0 6 3 -1 5 -18 5 -16 0 -22 -2 -12 -5z"/>
<path d="M9873 11455 c0 -22 2 -30 4 -17 2 12 2 30 0 40 -3 9 -5 -1 -4 -23z"/>
<path d="M3979 11313 c-13 -16 -12 -17 4 -4 9 7 17 15 17 17 0 8 -8 3 -21 -13z"/>
<path d="M5585 11058 c-9 -94 -11 -5538 -2 -5538 4 0 49 -31 100 -68 204 -152
537 -387 797 -564 52 -35 118 -80 145 -99 65 -46 83 -52 87 -32 2 9 2 1286 0
2838 l-2 2821 -33 16 c-26 12 -138 85 -375 243 -200 133 -300 201 -310 212 -7
7 -19 13 -27 13 -7 0 -15 4 -17 9 -4 12 -209 149 -274 184 -76 40 -81 38 -89
-35z"/>
<path d="M9510 11075 c-14 -8 -31 -14 -38 -15 -13 0 -98 -57 -177 -120 -27
-22 -90 -68 -140 -103 -49 -34 -103 -72 -120 -84 -16 -11 -57 -38 -90 -59 -33
-21 -63 -42 -66 -47 -4 -5 -16 -14 -27 -20 -11 -7 -87 -59 -169 -117 -81 -58
-167 -118 -190 -134 l-43 -29 0 -2793 0 -2794 28 12 c15 7 40 23 55 35 16 13
35 23 43 23 8 0 14 4 14 9 0 5 21 23 48 39 59 37 395 271 563 392 26 19 88 63
136 97 48 34 99 72 113 85 14 13 44 36 67 52 l43 29 0 2496 c0 2324 -5 3062
-19 3061 -3 -1 -17 -7 -31 -15z"/>
<path d="M3949 9823 c-12 -16 -12 -17 1 -7 8 6 22 14 30 17 13 5 12 6 -1 6 -9
1 -23 -7 -30 -16z"/>
<path d="M11881 9744 c0 -11 3 -14 6 -6 3 7 2 16 -1 19 -3 4 -6 -2 -5 -13z"/>
<path d="M11728 7493 c6 -2 18 -2 25 0 6 3 1 5 -13 5 -14 0 -19 -2 -12 -5z"/>
<path d="M2910 6406 c0 -2 8 -10 18 -17 15 -13 16 -12 3 4 -13 16 -21 21 -21
13z"/>
<path d="M5282 5785 c0 -16 2 -22 5 -12 2 9 2 23 0 30 -3 6 -5 -1 -5 -18z"/>
<path d="M5287 5729 c4 -13 8 -18 11 -10 2 7 -1 18 -6 23 -8 8 -9 4 -5 -13z"/>
<path d="M11525 5700 c-3 -6 1 -7 9 -4 18 7 21 14 7 14 -6 0 -13 -4 -16 -10z"/>
<path d="M7465 5431 c-38 -20 -157 -90 -263 -155 -106 -64 -208 -124 -227
-133 l-35 -17 0 -220 c0 -122 3 -230 6 -241 8 -26 123 -113 229 -171 32 -18
174 -106 290 -180 l70 -44 5 582 c3 321 9 591 14 601 13 27 -11 21 -89 -22z"/>
<path d="M7595 5425 l25 -24 0 -566 c0 -516 1 -565 16 -565 25 0 395 223 414
249 3 4 37 28 76 54 39 26 76 53 82 60 16 19 21 437 6 437 -7 0 -66 36 -132
80 -66 44 -123 80 -127 80 -3 0 -35 20 -71 45 -35 25 -66 45 -69 45 -3 0 -25
14 -48 30 -91 66 -150 100 -173 100 l-23 0 24 -25z"/>
<path d="M4805 4030 c-384 -7 -368 6 -375 -305 l-5 -210 -165 -5 c-153 -5
-167 -7 -198 -28 -36 -26 -72 -88 -72 -125 0 -14 8 -35 19 -48 17 -21 21 -22
50 -9 17 7 37 20 44 29 24 32 55 39 183 42 l129 4 -1 -235 c0 -195 -3 -243
-18 -279 -28 -75 -62 -110 -142 -147 -57 -26 -75 -39 -80 -59 -9 -38 2 -68 33
-86 59 -35 189 28 268 130 74 95 94 197 95 484 l0 187 88 0 c145 1 191 20 192
82 0 44 -31 58 -135 58 -52 0 -100 6 -115 13 l-25 13 -2 167 c-2 126 0 169 10
172 6 2 92 5 190 7 l177 4 0 -431 c0 -479 3 -509 62 -565 53 -51 133 -63 204
-31 29 13 44 28 52 50 13 36 3 45 -61 55 -48 8 -72 20 -91 48 -14 19 -16 79
-16 445 0 410 1 422 20 428 33 10 70 63 70 101 0 50 -9 51 -385 44z"/>
<path d="M7444 3870 c-55 -22 -54 -17 -54 -518 l0 -463 25 -24 c28 -29 70 -32
103 -9 22 15 22 19 22 232 l0 217 35 24 c21 14 56 26 83 29 41 3 53 0 77 -20
l28 -25 1 -194 c1 -173 3 -198 21 -234 23 -46 62 -61 113 -44 45 15 59 47 38
87 -13 25 -16 66 -16 210 0 197 -9 244 -58 296 -61 64 -175 84 -272 47 l-50
-19 0 203 c0 176 -2 204 -16 209 -21 8 -54 7 -80 -4z"/>
<path d="M9572 3843 c-21 -18 -36 -42 -42 -68 -5 -22 -10 -234 -10 -470 0
-374 2 -433 16 -453 21 -30 73 -30 101 1 20 21 22 35 25 234 4 252 1 245 106
251 67 4 69 3 95 -28 l27 -32 0 -183 c0 -101 4 -195 10 -209 12 -32 62 -58
103 -54 l32 3 7 95 c4 52 6 160 4 240 -2 119 -6 153 -23 190 -42 94 -121 133
-263 128 l-93 -3 5 168 c5 146 4 170 -11 186 -28 33 -54 34 -89 4z"/>
<path d="M8629 3711 c-86 -87 34 -219 124 -136 47 45 28 132 -34 154 -47 16
-57 14 -90 -18z"/>
<path d="M10270 3687 c-38 -29 -50 -61 -50 -129 0 -64 -1 -68 -22 -68 -62 -1
-161 -77 -138 -105 6 -7 27 -15 48 -18 20 -3 52 -9 70 -13 l32 -6 0 -72 c2
-290 16 -359 83 -407 36 -26 48 -29 119 -29 65 0 81 3 98 20 24 24 26 77 4
108 -13 19 -24 22 -78 22 -49 0 -65 4 -70 16 -3 9 -6 91 -6 183 l0 167 60 -4
c128 -9 167 19 127 91 -23 42 -60 57 -140 57 l-48 0 7 58 c11 79 9 100 -12
123 -19 21 -61 25 -84 6z"/>
<path d="M9122 3500 c-42 -9 -97 -37 -136 -69 -60 -51 -116 -186 -116 -282 0
-148 114 -310 217 -309 32 0 108 33 137 58 18 17 18 15 14 -73 -5 -103 -25
-152 -88 -215 -45 -45 -109 -80 -203 -110 -74 -24 -82 -31 -73 -64 9 -35 69
-60 142 -59 80 1 145 35 236 124 123 121 137 179 138 577 0 281 1 295 21 323
26 37 22 58 -17 81 -30 18 -32 18 -56 -1 -25 -20 -26 -20 -64 -1 -50 24 -98
31 -152 20z m100 -162 c15 -19 18 -44 18 -146 0 -68 -5 -132 -10 -143 -14 -25
-81 -59 -118 -59 -40 0 -63 30 -78 103 -23 110 11 225 79 264 31 18 88 8 109
-19z"/>
<path d="M5460 3480 c-108 -37 -165 -131 -177 -291 -19 -254 183 -418 387
-315 84 42 150 175 150 301 -1 156 -70 268 -194 309 -63 21 -98 20 -166 -4z
m139 -135 c81 -69 88 -270 13 -339 -11 -10 -39 -20 -61 -23 -36 -5 -44 -2 -69
25 -71 76 -69 257 3 329 40 40 73 42 114 8z"/>
<path d="M5938 3490 c-16 -10 -18 -36 -18 -306 l0 -295 25 -25 c19 -19 30 -23
57 -18 61 11 64 22 71 231 3 104 10 201 16 216 14 37 48 42 135 22 97 -23 122
-17 137 36 11 35 10 45 -6 76 -11 19 -31 41 -46 49 -36 18 -136 18 -171 0 -24
-13 -32 -13 -57 0 -39 19 -121 27 -143 14z"/>
<path d="M10783 3490 c-113 -23 -170 -95 -160 -203 7 -81 40 -119 148 -177
123 -65 129 -69 129 -86 0 -8 -16 -22 -35 -30 -52 -21 -105 -18 -147 11 -43
29 -75 31 -104 7 -35 -28 -38 -66 -9 -100 51 -60 166 -84 282 -57 62 14 77 22
112 60 47 51 59 98 41 158 -16 54 -47 83 -154 142 -121 67 -141 102 -81 141
25 16 29 16 111 -11 95 -31 128 -26 140 20 16 64 -31 106 -131 120 -28 3 -61
8 -75 10 -14 1 -44 -1 -67 -5z"/>
<path d="M6606 3483 c-36 -10 -95 -48 -137 -88 -64 -60 -91 -130 -97 -247 -5
-122 13 -183 73 -243 76 -76 144 -82 235 -19 l52 35 33 -38 33 -38 80 0 c99 0
137 21 137 76 0 42 -32 62 -92 56 -30 -3 -43 0 -47 10 -3 8 -6 118 -6 243 0
213 -1 230 -19 239 -21 12 -216 23 -245 14z m114 -287 l0 -165 -57 -26 c-69
-32 -97 -26 -125 24 -23 41 -28 127 -10 187 23 79 95 140 170 143 22 1 22 1
22 -163z"/>
<path d="M8175 3475 c-92 -35 -136 -113 -143 -256 -8 -160 38 -267 145 -336
51 -33 67 -38 130 -41 82 -5 159 17 194 54 19 21 19 22 3 58 -19 40 -27 42
-104 25 -73 -16 -114 -5 -161 42 -52 52 -51 74 1 83 110 17 218 83 255 155 34
68 -2 159 -80 202 -51 29 -180 36 -240 14z m162 -137 c13 -12 23 -29 23 -38 0
-34 -65 -71 -148 -85 l-43 -7 7 39 c7 42 38 99 57 107 31 12 82 5 104 -16z"/>
<path d="M8627 3462 c-14 -15 -17 -55 -18 -296 -1 -276 -1 -278 22 -302 29
-31 75 -31 113 0 l30 23 -14 56 c-10 43 -12 109 -7 276 7 254 5 261 -67 261
-29 0 -48 -6 -59 -18z"/>
<path d="M8230 2665 c0 -9 7 -30 16 -47 12 -22 15 -49 12 -95 l-4 -63 29 0 29
0 -7 83 c-4 54 -13 91 -24 107 -22 30 -51 39 -51 15z"/>
<path d="M9600 2601 c0 -44 -2 -85 -5 -93 -6 -16 11 -45 21 -35 12 11 24 137
17 175 -3 18 -11 32 -19 32 -11 0 -14 -18 -14 -79z"/>
<path d="M10087 2657 c-36 -29 -47 -88 -21 -114 16 -17 16 -18 0 -21 -12 -3
-15 -9 -10 -25 9 -30 22 -37 69 -37 58 0 85 22 85 69 0 46 -18 63 -61 59 -43
-4 -48 -23 -9 -36 54 -19 36 -62 -26 -62 -20 0 -24 4 -19 19 3 11 1 22 -4 26
-14 8 -2 65 17 88 17 19 47 23 57 7 9 -15 35 -12 35 4 0 19 -38 46 -65 46 -11
0 -33 -10 -48 -23z"/>
<path d="M8332 2660 c-13 -6 -20 -14 -17 -20 8 -13 35 -13 35 0 0 6 5 10 10
10 6 0 10 -34 10 -83 0 -51 5 -88 12 -95 18 -18 119 -15 147 4 22 16 23 21 17
83 -10 112 -5 106 -104 108 -48 1 -97 -2 -110 -7z m168 -49 c25 -47 5 -125
-33 -135 -49 -12 -56 -1 -56 80 l0 74 39 0 c29 0 42 -5 50 -19z"/>
<path d="M8687 2664 c-4 -4 -7 -18 -7 -31 0 -30 -15 -29 -44 2 -39 42 -46 33
-46 -59 0 -46 -3 -91 -6 -100 -4 -11 0 -16 14 -16 18 0 21 7 24 57 2 44 7 59
19 61 27 5 49 -26 49 -69 0 -45 22 -62 47 -36 14 13 14 19 3 32 -7 9 -14 47
-16 88 -2 50 -7 73 -17 75 -7 1 -16 0 -20 -4z"/>
<path d="M8830 2658 c-1 -16 -53 -123 -70 -143 -9 -11 -9 -15 -1 -15 7 0 9 -9
5 -25 -10 -41 12 -29 36 20 19 40 25 45 56 45 19 0 34 4 34 9 0 15 -27 20 -39
8 -17 -17 -13 -3 11 48 19 40 20 47 8 55 -21 14 -40 12 -40 -2z"/>
<path d="M9449 2643 c-5 -15 -19 -57 -31 -93 -11 -36 -23 -69 -26 -74 -3 -5 1
-6 8 -1 7 4 16 2 21 -6 8 -12 11 -11 20 4 7 12 23 17 54 17 38 0 45 -3 45 -20
0 -14 7 -20 21 -20 24 0 23 2 -24 133 -27 75 -34 87 -54 87 -16 0 -27 -8 -34
-27z m49 -58 c19 -42 15 -55 -18 -55 -34 0 -34 1 -18 47 14 40 21 41 36 8z"/>
<path d="M9682 2650 c-18 -17 -22 -32 -22 -84 0 -75 17 -96 82 -103 34 -4 49
0 72 18 27 21 28 25 24 96 -4 86 -10 93 -84 93 -37 0 -56 -5 -72 -20z m98 -25
c17 -21 24 -89 11 -114 -12 -22 -54 -29 -79 -12 -22 14 -27 87 -8 116 18 28
57 33 76 10z"/>
<path d="M9884 2654 c3 -9 6 -58 6 -110 l0 -94 26 0 c26 0 27 1 22 58 l-6 58
30 -4 c28 -4 29 -6 22 -47 -6 -45 3 -59 30 -49 14 5 16 21 14 103 -3 91 -4 96
-26 99 -21 3 -22 1 -17 -35 3 -21 1 -45 -5 -53 -9 -13 -12 -12 -25 4 -8 11
-18 34 -21 53 -5 27 -11 33 -31 33 -19 0 -24 -4 -19 -16z"/>
</g>
</svg>
