<?xml version="1.0" encoding="UTF-8"?>
<!DOCTYPE svg PUBLIC "-//W3C//DTD SVG 1.1//EN" "http://www.w3.org/Graphics/SVG/1.1/DTD/svg11.dtd">
<!-- Creator: CorelDRAW -->
<svg xmlns="http://www.w3.org/2000/svg" xml:space="preserve" width="2048px" height="2048px" style="shape-rendering:geometricPrecision; text-rendering:geometricPrecision; image-rendering:optimizeQuality; fill-rule:evenodd; clip-rule:evenodd"
viewBox="0 0 2048 2048"
 xmlns:xlink="http://www.w3.org/1999/xlink">
 <defs>
  <style type="text/css">
   <![CDATA[
    .fil1 {fill:none}
    .fil0 {fill:#212121;fill-rule:nonzero}
   ]]>
  </style>
 </defs>
 <g id="Layer_x0020_1">
  <metadata id="CorelCorpID_0Corel-Layer"/>
  <path class="fil0" d="M671.999 255.998l704.001 0c44.0327,0 84.0414,17.9917 113.026,46.9748 28.9831,28.9843 46.9748,68.993 46.9748,113.026l0 95.9977c0,17.6728 -14.328,32.0008 -32.0008,32.0008l-16.0618 0 0 960 16.0618 0c17.6728,0 32.0008,14.328 32.0008,32.0008l0 96.0024c0,44.0327 -17.9917,84.0414 -46.9748,113.026 -28.9843,28.9831 -68.993,46.9748 -113.026,46.9748l-704.001 0c-44.0327,0 -84.0414,-17.9917 -113.026,-46.9748 -28.9831,-28.9843 -46.9748,-68.993 -46.9748,-113.026l0 -96.0024c0,-17.6728 14.328,-32.0008 32.0008,-32.0008l16.0606 0 0 -960 -16.0606 0c-17.6728,0 -32.0008,-14.328 -32.0008,-32.0008l0 -95.9977c0,-44.0327 17.9917,-84.0414 46.9748,-113.026 28.9843,-28.9831 68.993,-46.9748 113.026,-46.9748zm704.001 64.0016l-704.001 0c-26.3669,0 -50.3611,10.8095 -67.7752,28.2236 -17.4142,17.4142 -28.2236,41.4083 -28.2236,67.7752l0 63.9969 16.0606 0c17.6728,0 32.0008,14.328 32.0008,32.0008l0 1024c0,17.6728 -14.328,32.0008 -32.0008,32.0008l-16.0606 0 0 64.0016c0,26.3669 10.8095,50.3611 28.2236,67.7752 17.4142,17.4142 41.4083,28.2236 67.7752,28.2236l704.001 0c26.3669,0 50.3611,-10.8095 67.7752,-28.2236 17.4142,-17.4142 28.2236,-41.4083 28.2236,-67.7752l0 -64.0016 -16.0618 0c-17.6728,0 -32.0008,-14.328 -32.0008,-32.0008l0 -1024c0,-17.6728 14.328,-32.0008 32.0008,-32.0008l16.0618 0 0 -63.9969c0,-26.3669 -10.8095,-50.3611 -28.2236,-67.7752 -17.4142,-17.4142 -41.4083,-28.2236 -67.7752,-28.2236z"/>
  <path class="fil0" d="M550.966 479.998c-17.6728,0 -32.0008,14.328 -32.0008,32.0008 0,17.6728 14.328,32.0008 32.0008,32.0008l473.801 0 472.269 0c17.6728,0 32.0008,-14.328 32.0008,-32.0008 0,-17.6728 -14.328,-32.0008 -32.0008,-32.0008l-472.269 0 -473.801 0z"/>
  <path class="fil0" d="M550.966 1504c-17.6728,0 -32.0008,14.328 -32.0008,32.0008 0,17.6728 14.328,32.0008 32.0008,32.0008l473.801 0 472.269 0c17.6728,0 32.0008,-14.328 32.0008,-32.0008 0,-17.6728 -14.328,-32.0008 -32.0008,-32.0008l-472.269 0 -473.801 0z"/>
  <path class="fil0" d="M895.999 367.998c-17.6728,0 -32.0008,14.328 -32.0008,32.0008 0,17.6728 14.328,32.0008 32.0008,32.0008l256.002 0c17.6728,0 32.0008,-14.328 32.0008,-32.0008 0,-17.6728 -14.328,-32.0008 -32.0008,-32.0008l-256.002 0z"/>
  <path class="fil0" d="M971.672 1616c-17.6728,0 -32.0008,14.328 -32.0008,32.0008 0,17.6728 14.328,32.0008 32.0008,32.0008l104.655 0c17.6728,0 32.0008,-14.328 32.0008,-32.0008 0,-17.6728 -14.328,-32.0008 -32.0008,-32.0008l-104.655 0z"/>
  <path class="fil0" d="M1187.12 812.411l-50.9823 322.749c-1.11496,6.54567 -1.67244,11.2819 -1.67244,14.3457 0,4.87559 1.3937,8.63741 4.04055,11.4224 2.78622,2.64685 6.82441,4.04055 12.2587,4.04055 12.5362,0 26.6044,-5.57245 42.4855,-16.7162 23.4,-16.2969 42.6237,-39.978 57.6674,-70.7623 15.1843,-30.9225 22.7043,-68.256 22.7043,-112.133 0,-71.739 -20.615,-128.57 -61.8461,-170.082 -41.2323,-41.6492 -96.5316,-62.543 -165.902,-62.543 -51.1217,0 -97.7859,12.2587 -139.714,36.7748 -42.0674,24.515 -74.5241,60.0355 -97.2284,106.561 -22.7043,46.5237 -33.9886,97.9241 -33.9886,154.2 0,87.6178 24.6555,157.127 73.9666,208.387 49.4504,51.2622 113.11,76.8922 191.254,76.8922 38.0292,0 74.8028,-6.40867 110.045,-19.2225 35.2418,-12.6768 68.9516,-31.761 101.406,-57.1122l83.5784 0c-22.2874,26.4662 -43.4599,47.0835 -63.6579,61.9867 -29.6705,22.1492 -64.076,40.1174 -103.218,53.9079 -39.1429,13.9288 -81.3508,20.8949 -126.481,20.8949 -62.8229,0 -119.378,-14.6268 -169.386,-43.7398 -50.0067,-29.1118 -89.1485,-70.6241 -117.286,-124.391 -28.2792,-53.9067 -42.3473,-113.248 -42.3473,-178.019 0,-67.9772 14.6256,-129.826 43.8792,-185.404 29.2524,-55.7185 68.1154,-98.3434 116.59,-128.013 48.3355,-29.6705 105.865,-44.4366 172.171,-44.4366 85.6666,0 155.454,27.163 209.223,81.6272 53.6292,54.3272 80.5123,124.67 80.5123,210.895 0,51.2611 -10.4457,98.0635 -31.3418,140.41 -21.0331,42.4855 -51.6792,76.0571 -92.2135,100.851 -31.3429,19.0843 -60.7335,28.5555 -88.1741,28.5555 -16.298,0 -29.6705,-3.75945 -39.978,-11.4213 -10.448,-7.663 -17.9705,-19.7811 -22.8449,-36.3555 -18.2469,17.6894 -34.8248,30.2268 -49.8674,37.3299 -14.9055,7.24489 -31.2036,10.8662 -48.6154,10.8662 -36.078,0 -67.2792,-15.0437 -93.3284,-45.2717 -26.1874,-30.2268 -39.2823,-73.5485 -39.2823,-129.825 0,-66.5847 16.7162,-126.899 50.2878,-180.807 33.4288,-53.7674 74.941,-80.791 124.39,-80.791 19.3618,0 36.3555,4.45748 51.2611,13.5118 14.765,8.91379 29.6693,24.6555 44.713,46.9429l7.24489 -46.1067 79.6772 0zm-271.766 267.31c0,32.3162 6.82441,57.5292 20.7532,75.4973 10.3075,13.2331 23.5429,19.9205 39.5611,19.9205 17.4106,0 33.1524,-7.38308 47.3622,-22.1492 14.2063,-14.9055 26.465,-44.4355 37.1906,-88.8721 10.5862,-44.2961 15.8788,-84.1335 15.8788,-119.515 0,-26.6067 -5.70945,-46.8036 -17.1319,-60.4548 -11.4224,-13.5118 -25.0725,-20.3374 -40.8142,-20.3374 -17.9681,0 -33.7099,6.8256 -47.3599,20.3374 -18.2492,18.2469 -32.0398,47.2217 -41.3705,86.7816 -9.47363,39.5611 -14.0693,75.7772 -14.0693,108.791z"/>
 </g>
 <rect class="fil1" width="2048" height="2048"/>
</svg>
