<?xml version="1.0" standalone="no"?>
<!DOCTYPE svg PUBLIC "-//W3C//DTD SVG 20010904//EN"
 "http://www.w3.org/TR/2001/REC-SVG-20010904/DTD/svg10.dtd">
<svg version="1.0" xmlns="http://www.w3.org/2000/svg"
 width="1024.000000pt" height="1024.000000pt" viewBox="0 0 1024.000000 1024.000000"
 preserveAspectRatio="xMidYMid meet">

<g transform="translate(0.000000,1024.000000) scale(0.100000,-0.100000)"
fill="#000000" stroke="none">
<path d="M0 5120 l0 -5120 5120 0 5120 0 0 5120 0 5120 -2767 0 -2768 -1 40
-31 c83 -64 263 -257 318 -340 142 -213 243 -461 298 -733 10 -51 13 -56 20
-35 4 14 7 84 8 156 1 151 -17 276 -61 414 -51 161 -109 262 -212 369 l-61 63
65 -6 c154 -15 462 -112 639 -201 180 -90 309 -183 470 -340 407 -395 657
-886 762 -1496 27 -158 38 -576 19 -738 -50 -438 -150 -743 -415 -1266 -232
-457 -511 -887 -850 -1310 -130 -162 -276 -328 -282 -321 -3 2 25 60 61 128
90 171 139 287 201 473 136 409 164 747 94 1145 -73 415 -213 768 -527 1328
l-120 214 -95 -194 c-53 -106 -155 -294 -227 -418 -276 -472 -386 -751 -435
-1102 -20 -142 -19 -372 1 -490 34 -201 130 -520 219 -728 19 -45 35 -85 35
-88 0 -14 -75 99 -165 248 -181 302 -490 899 -599 1159 -111 262 -211 574
-270 836 -111 498 -122 1006 -31 1461 92 461 352 987 707 1432 56 70 165 191
243 270 l141 142 -2348 0 -2348 0 0 -5120z m3463 4318 c-168 -175 -279 -418
-333 -727 -88 -503 -26 -891 267 -1656 140 -367 216 -543 473 -1095 359 -773
484 -1003 740 -1365 62 -88 162 -229 222 -314 60 -84 107 -155 106 -157 -2 -1
-141 119 -308 268 -486 432 -722 613 -1130 863 -193 119 -337 197 -1005 545
-440 229 -561 306 -713 454 -136 131 -247 296 -311 459 -73 188 -96 342 -88
579 9 259 59 448 183 697 125 251 287 473 514 701 393 396 826 651 1355 799
39 11 76 20 84 20 8 1 -17 -32 -56 -71z m4207 -201 c173 -121 299 -226 461
-387 306 -304 512 -587 698 -958 206 -412 322 -810 362 -1247 15 -157 17 -493
5 -590 l-9 -70 -12 80 c-24 161 -79 293 -157 380 l-44 48 -23 -64 c-100 -276
-337 -608 -604 -847 -435 -389 -891 -630 -1917 -1011 -118 -44 -370 -143 -560
-221 -190 -78 -397 -163 -461 -190 l-116 -47 71 66 c170 157 317 306 440 446
346 393 516 621 731 979 192 319 246 435 515 1101 288 710 403 948 611 1256
91 135 233 303 342 406 89 84 89 86 57 221 -43 181 -150 352 -335 537 -66 67
-159 152 -207 189 -49 38 -88 71 -88 72 0 6 155 -91 240 -149z m-6561 -3074
c41 -133 116 -281 184 -363 134 -163 364 -310 607 -388 186 -60 235 -70 584
-117 538 -71 786 -143 1176 -340 385 -195 648 -392 955 -715 142 -150 278
-274 373 -343 23 -17 39 -34 35 -38 -10 -9 -421 -177 -543 -222 -349 -129
-622 -188 -958 -208 -513 -29 -962 80 -1331 323 -302 200 -593 542 -794 935
-163 321 -248 583 -311 968 -18 106 -36 306 -36 396 0 143 11 272 21 239 4
-14 21 -71 38 -127z m6881 -1704 c-77 -64 -463 -272 -665 -359 -160 -69 -472
-172 -617 -204 -384 -86 -781 -99 -1190 -40 -62 9 -117 20 -122 25 -13 12 -6
11 149 -6 696 -79 1405 49 2039 367 109 55 330 177 386 214 44 29 53 30 20 3z
m-2153 -795 c-3 -3 -12 -4 -19 -1 -8 3 -5 6 6 6 11 1 17 -2 13 -5z m147 -34
c280 -66 493 -109 711 -144 83 -13 137 -25 120 -25 -39 -1 -254 32 -420 64
-145 29 -545 125 -545 131 0 6 0 6 134 -26z m919 -177 c-7 -2 -21 -2 -30 0
-10 3 -4 5 12 5 17 0 24 -2 18 -5z"/>
</g>
</svg>
