<?xml version="1.0" encoding="UTF-8"?>
<!DOCTYPE svg PUBLIC "-//W3C//DTD SVG 1.1//EN" "http://www.w3.org/Graphics/SVG/1.1/DTD/svg11.dtd">
<!-- Creator: CorelDRAW -->
<svg xmlns="http://www.w3.org/2000/svg" xml:space="preserve" width="6.82666in" height="6.82666in" style="shape-rendering:geometricPrecision; text-rendering:geometricPrecision; image-rendering:optimizeQuality; fill-rule:evenodd; clip-rule:evenodd"
viewBox="0 0 6.82666 6.82666"
 xmlns:xlink="http://www.w3.org/1999/xlink">
 <defs>
  <style type="text/css">
   <![CDATA[
    .fil2 {fill:none}
    .fil0 {fill:#424242}
    .fil1 {fill:#FFFFFE;fill-rule:nonzero}
   ]]>
  </style>
 </defs>
 <rect class="fil0" width="6.82666" height="6.82666"/>
 <g id="Layer_x0020_1">
  <metadata id="CorelCorpID_0Corel-Layer"/>
  <g id="_341558016">
   <path id="_341558688" class="fil1" d="M3.38349 1.41478c0.295016,0 0.562118,0.119591 0.755469,0.312937 0.193346,0.19335 0.312937,0.460453 0.312937,0.755469 0,0.295016 -0.119594,0.562122 -0.312937,0.755465 -0.19335,0.19335 -0.460453,0.312941 -0.755469,0.312941 -0.295016,0 -0.562122,-0.119594 -0.755465,-0.312937 -0.193346,-0.19335 -0.312937,-0.460453 -0.312937,-0.755469 0,-0.295016 0.119591,-0.562118 0.312937,-0.755469 0.193343,-0.193343 0.460449,-0.312937 0.755465,-0.312937zm0.604634 0.463772c-0.154732,-0.154728 -0.368504,-0.250433 -0.604634,-0.250433 -0.23613,0 -0.449906,0.0957087 -0.60463,0.250433 -0.154728,0.154732 -0.250433,0.368504 -0.250433,0.604634 0,0.23613 0.0957047,0.449902 0.250433,0.604634 0.154724,0.154724 0.3685,0.250433 0.60463,0.250433 0.23613,0 0.449902,-0.0957047 0.604634,-0.250437 0.154724,-0.154724 0.250433,-0.3685 0.250433,-0.60463 0,-0.23613 -0.0957047,-0.449902 -0.250433,-0.604634z"/>
   <rect id="_341558496" class="fil2" width="6.82666" height="6.82666"/>
   <path id="_341558088" class="fil1" d="M2.11131 1.46544c0.146657,-0.183146 0.332461,-0.334051 0.544909,-0.44022 0.205079,-0.10248 0.434717,-0.163012 0.677642,-0.170327 0.0260512,-0.000779528 0.0536772,-0.00116929 0.0822126,-0.00114961 0.0284134,2.3622e-005 0.055748,0.000444882 0.0812283,0.00127953 0.241969,0.00792913 0.470685,0.068685 0.674965,0.171114 0.21172,0.106154 0.396878,0.256717 0.543083,0.439303 0.375126,0.468472 0.358732,1.21061 0.149303,1.97087 -0.27002,0.980193 -0.862921,2.00081 -1.3388,2.481 -0.0168031,0.0227638 -0.0394016,0.0382638 -0.0642087,0.0471654 -0.0187165,0.00672835 -0.0382362,0.00940551 -0.0567323,0.00837402 -0.0192008,-0.00107087 -0.038374,-0.00602756 -0.0555669,-0.0144882 -0.0197126,-0.00971654 -0.0370433,-0.0239843 -0.0500236,-0.0425512 -0.475626,-0.480807 -1.06758,-1.50031 -1.33732,-2.4795 -0.209429,-0.76026 -0.225823,-1.5024 0.149303,-1.97087zm0.639909 -0.25022c-0.184339,0.0921181 -0.345996,0.223606 -0.474075,0.383551 -0.325661,0.406697 -0.303106,1.0812 -0.110138,1.7817 0.253059,0.918626 0.797547,1.87143 1.24632,2.34642 0.44878,-0.474988 0.993264,-1.42779 1.24632,-2.34642 0.192969,-0.7005 0.215524,-1.37501 -0.110138,-1.7817 -0.127689,-0.159461 -0.288701,-0.290606 -0.472248,-0.382634 -0.177394,-0.0889449 -0.376169,-0.141717 -0.586634,-0.14861 -0.0256063,-0.000838583 -0.0506299,-0.00125984 -0.0745591,-0.00127953 -0.0247362,-1.5748e-005 -0.0504173,0.000374016 -0.076378,0.00114961 -0.211091,0.00635827 -0.410508,0.0588898 -0.588476,0.147823zm0.676205 4.6183l-3.54331e-005 -3.54331e-005 -0.00937008 0.00337008 4.33071e-005 1.9685e-005 0.0093622 -0.00335433zm-3.54331e-005 -3.54331e-005l3.54331e-005 3.54331e-005 0.0516102 -0.0184921 -9.05512e-005 -7.08661e-005 -0.0515551 0.0185276z"/>
   <rect id="_341558736" class="fil2" width="6.82666" height="6.82666"/>
  </g>
 </g>
</svg>
